<?xml version="1.0" encoding="UTF-8"?>
<svg width="102px" height="24px" viewBox="0 0 102 24" version="1.1" xmlns="http://www.w3.org/2000/svg" xmlns:xlink="http://www.w3.org/1999/xlink">
    <!-- Generator: Sketch 49.1 (51147) - http://www.bohemiancoding.com/sketch -->
    <title>logo</title>
    <desc>Created with Sketch.</desc>
    <defs></defs>
    <g id="Page-1" stroke="none" stroke-width="1" fill="none" fill-rule="evenodd">
        <g id="Desktop-HD" transform="translate(-30.000000, -15.000000)" fill="#0699CD">
            <g id="header">
                <g id="logo" transform="translate(29.000000, 15.000000)">
                    <path d="M32.3659814,18.8834253 C32.2697491,19.1116709 31.9834449,19.2966651 31.7368987,19.2966231 L29.4720046,19.2962374 C29.2208041,19.2961947 28.9406787,19.1137569 28.8438602,18.8828686 L24.3210388,8.09705288 C24.2253247,7.86879833 24.3503668,7.6838395 24.5975465,7.68393469 L26.280283,7.68458271 C26.528708,7.68467838 26.8112842,7.87766759 26.9072182,8.10561774 L30.6172103,16.9209791 L34.3272023,8.10561774 C34.425024,7.87318219 34.7070243,7.68475594 34.9542848,7.68475594 L36.6375723,7.68475594 C36.8860786,7.68475594 37.0106316,7.86715186 36.9132889,8.09803119 L32.3659814,18.8834253 Z M43.3246714,19.5876052 C42.4717983,19.5876052 41.6722417,19.4300334 40.9259777,19.1148851 C40.1797137,18.7997368 39.5277675,18.3674245 38.9701197,17.8179352 C38.4124719,17.2684458 37.9737408,16.6219975 37.6539134,15.8785707 C37.334086,15.135144 37.1741746,14.3432447 37.1741746,13.5028493 C37.1741746,12.6624538 37.3258854,11.8705546 37.6293114,11.1271278 C37.9327374,10.3837011 38.3427664,9.73725272 38.8594108,9.18776338 C39.3760551,8.63827404 39.9787977,8.20596171 40.6676568,7.89081341 C41.3565159,7.57566511 42.0945681,7.41809333 42.8818356,7.41809333 C43.6855046,7.41809333 44.4276571,7.5554636 45.1083155,7.83020827 C45.7889738,8.10495294 46.3794156,8.53322497 46.8796585,9.11503722 C47.3799014,9.69684946 47.769429,10.4362248 48.0482529,11.3331853 C48.2666475,12.0357482 48.4275843,14.0949673 48.4275843,14.0949673 C48.4490695,14.3436558 48.2671014,14.5452577 48.0079335,14.5452577 L39.7081793,14.5452577 C39.8229892,14.9654554 40.0034019,15.3573647 40.249423,15.7209973 C40.4954441,16.08463 40.7865647,16.3997736 41.1227936,16.6664375 C41.4590224,16.9331015 41.8362491,17.1391569 42.254485,17.2846099 C42.6727208,17.430063 43.1114519,17.5027884 43.5706913,17.5027884 C44.1939447,17.5027884 44.7720856,17.38966 45.3051314,17.1633997 C45.8381771,16.9371393 46.3110847,16.5408226 46.3110847,16.5408226 C46.5096073,16.3892873 46.8174742,16.4112265 46.9981403,16.5892495 L47.8190622,17.3981611 C47.9999899,17.5764418 47.9816265,17.8493665 47.7802161,18.0013446 C47.7802161,18.0013446 46.871462,18.7391316 46.043191,19.078522 C45.2149199,19.4179125 44.3087558,19.5876052 43.3246714,19.5876052 Z M42.8818356,9.55139421 C42.5046033,9.55139421 42.147878,9.62411965 41.8116492,9.76957271 C41.4754204,9.91502578 41.1637983,10.1170409 40.8767737,10.3756241 C40.5897491,10.6342073 40.3437317,10.9412703 40.1387141,11.2968222 C39.9336965,11.6523741 39.7819858,12.0402431 39.6835773,12.4604409 L45.90788,12.4604409 C45.8750772,12.0725661 45.7848709,11.7008582 45.6372582,11.3453063 C45.4896455,10.9897544 45.284631,10.6786511 45.0222085,10.4119872 C44.759786,10.1453232 44.4522642,9.93522753 44.099634,9.78169374 C43.7470038,9.62815996 43.341075,9.55139421 42.8818356,9.55139421 Z M56.8990204,9.55670688 C56.8550451,9.71443499 56.6310582,9.76276351 56.4749683,9.69684655 L56.4749683,9.69684655 C56.3765599,9.66452365 56.2617518,9.63220123 56.1305405,9.59987833 C55.9993292,9.56755542 55.8599194,9.55139421 55.7123067,9.55139421 C55.2366659,9.55139421 54.7938346,9.62815996 54.3837994,9.78169374 C53.9737643,9.93522753 53.6211393,10.1412829 53.325914,10.3998662 C53.0306887,10.6584494 52.7969721,10.961472 52.6247573,11.3089432 C52.4525426,11.6564144 52.3664365,12.0240819 52.3664365,12.4119568 L52.3434487,18.8449733 C52.3425572,19.0944554 52.138372,19.2967005 51.881714,19.2967005 L50.4155623,19.2967005 C50.1614447,19.2967005 49.9554417,19.0951535 49.9554417,18.8414985 L49.9554417,8.13995793 C49.9554417,7.88855681 50.1581707,7.68475594 50.4140118,7.68475594 L51.3912247,7.68475594 C51.644486,7.68475594 51.9223969,7.87433687 52.016377,8.11974041 L52.3418345,8.96958488 C52.6698626,8.5009028 53.1003931,8.1251547 53.6334388,7.8423293 C54.1664845,7.5595039 54.8348318,7.41809333 55.6385008,7.41809333 C56.1633458,7.41809333 56.9887966,7.56483203 56.9887966,7.56483203 C57.2349219,7.60428714 57.3792413,7.83427658 57.3120927,8.07512124 C57.3120927,8.07512124 57.0774955,8.91656186 56.8990204,9.55670688 C56.872479,9.65190421 56.8990204,9.55670688 56.8990204,9.55670688 Z M60.079572,18.8725424 C59.9845284,19.1066721 59.7047514,19.2964717 59.4489103,19.2964717 L58.4716974,19.2964717 C58.2184361,19.2964717 58.0131273,19.097732 58.0131273,18.8412448 L58.0131273,2.05522683 C58.0131273,1.80381199 58.2165898,1.6 58.4732479,1.6 L59.9393996,1.6 C60.1935171,1.6 60.3995201,1.81190747 60.3995201,2.05947815 L60.3995201,8.94524782 C60.8587595,8.46041056 61.3917972,8.08466732 61.9986492,7.81800682 C62.6055013,7.55134633 63.3107512,7.41801808 64.1144201,7.41801808 C64.9344905,7.41801808 65.6930442,7.57558782 66.3901039,7.89073205 C67.0871637,8.20587627 67.6899064,8.63818301 68.19835,9.18766524 C68.7067936,9.73714748 69.1045217,10.3835875 69.3915464,11.1270046 C69.678571,11.8704217 69.8220811,12.6623107 69.8220811,13.5026953 C69.8220811,14.3430799 69.678571,15.1349689 69.3915464,15.878386 C69.1045217,16.6218032 68.7067936,17.2682432 68.19835,17.8177254 C67.6899064,18.3672076 67.0871637,18.7995144 66.3901039,19.1146586 C65.6930442,19.4298028 64.9344905,19.5873726 64.1144201,19.5873726 C63.343554,19.5873726 62.650605,19.4540443 62.0355522,19.1873838 C61.4204995,18.9207233 60.8751609,18.5530606 60.3995201,18.0843846 L60.079572,18.8725424 Z M63.9176042,9.55139421 C63.4419634,9.55139421 62.9909315,9.62007935 62.5644949,9.75745169 C62.1380584,9.89482402 61.764932,10.1210809 61.4451045,10.4362292 C61.1252771,10.7513775 60.8751594,11.1594481 60.6947439,11.660453 C60.5143285,12.161458 60.4241221,12.775584 60.4241221,13.5028493 C60.4241221,14.1816302 60.5143285,14.7715143 60.6947439,15.2725193 C60.8751594,15.7735243 61.1252771,16.1896754 61.4451045,16.5209852 C61.764932,16.8522949 62.1380584,17.0987534 62.5644949,17.2603679 C62.9909315,17.4219824 63.4419634,17.5027884 63.9176042,17.5027884 C64.393245,17.5027884 64.8442769,17.3977406 65.2707135,17.1876417 C65.6971501,16.9775428 66.0661762,16.6906814 66.3778029,16.3270487 C66.6894297,15.9634161 66.9354471,15.5391844 67.1158626,15.0543408 C67.296278,14.5694973 67.3864844,14.0523386 67.3864844,13.5028493 C67.3864844,12.9533599 67.296278,12.4362012 67.1158626,11.9513577 C66.9354471,11.4665142 66.6894297,11.0463228 66.3778029,10.6907708 C66.0661762,10.3352189 65.6971501,10.056438 65.2707135,9.85441991 C64.8442769,9.65240177 64.393245,9.55139421 63.9176042,9.55139421 Z M73.2619104,1.6 C73.5160279,1.6 73.7220309,1.79874224 73.7220309,2.05523272 L73.7220309,18.8414678 C73.7220309,19.0928859 73.5185684,19.2967005 73.2619104,19.2967005 L71.7957587,19.2967005 C71.5416411,19.2967005 71.3356382,19.0979583 71.3356382,18.8414678 L71.3356382,2.05523272 C71.3356382,1.80381463 71.5391007,1.6 71.7957587,1.6 L73.2619104,1.6 Z M77.8424341,18.8414985 C77.8429668,19.0928997 77.6399361,19.2967005 77.383278,19.2967005 L75.9171263,19.2967005 C75.6630088,19.2967005 75.4570058,19.0951535 75.4570058,18.8414985 L75.4570058,8.13995793 C75.4570058,7.88855681 75.6583708,7.68475594 75.9123828,7.68475594 L77.3634196,7.68475594 C77.6149173,7.68475594 77.8192236,7.88630298 77.819761,8.13995793 L77.8424341,18.8414985 Z M76.6379012,5.16358216 C76.2114646,5.16358216 75.8506391,5.01409098 75.5554138,4.71510414 C75.2601885,4.41611729 75.112578,4.05653039 75.112578,3.63633266 C75.112578,3.21613493 75.2601885,2.86058834 75.5554138,2.56968222 C75.8506391,2.2787761 76.2114646,2.13332522 76.6379012,2.13332522 C77.0643378,2.13332522 77.4251633,2.2787761 77.7203886,2.56968222 C78.015614,2.86058834 78.1632244,3.21613493 78.1632244,3.63633266 C78.1632244,4.05653039 78.015614,4.41611729 77.7203886,4.71510414 C77.4251633,5.01409098 77.0643378,5.16358216 76.6379012,5.16358216 Z M81.7925523,18.8322486 C81.7925523,19.0887583 81.5890898,19.2967005 81.3324318,19.2967005 L79.8662801,19.2967005 C79.6121625,19.2967005 79.4061596,19.0951535 79.4061596,18.8414985 L79.4061596,8.13995793 C79.4061596,7.88855681 79.6088885,7.68475594 79.8647296,7.68475594 L80.8419426,7.68475594 C81.0952038,7.68475594 81.3862194,7.86210698 81.500644,8.09888316 L81.7925523,8.70292227 C82.1861861,8.33120889 82.6618197,8.02414593 83.2194676,7.78172416 C83.7771154,7.53930239 84.3839583,7.41809333 85.0400146,7.41809333 C85.4664512,7.41809333 85.9502854,7.48273816 86.4915318,7.61202977 C87.0327783,7.74132138 87.537114,7.98373951 88.0045541,8.33929144 C88.4719941,8.69484336 88.865622,9.18776023 89.1854494,9.81805683 C89.5052769,10.4483534 89.6651882,11.2644945 89.6651882,12.2665044 L89.6651882,18.8354297 C89.6651882,19.0901826 89.4563115,19.2967005 89.2071589,19.2967005 L87.8598347,19.2967005 C87.6068721,19.2967005 87.4018054,19.0931828 87.4018054,18.8338391 L87.4018054,12.2422624 C87.4018054,11.7412574 87.3238999,11.3170257 87.1680865,10.9695545 C87.0122731,10.6220833 86.8072586,10.3433024 86.5530368,10.1332035 C86.298815,9.92310468 86.0117947,9.7736135 85.6919673,9.68472552 C85.3721398,9.59583754 85.0400163,9.55139421 84.6955868,9.55139421 C84.4331643,9.55139421 84.1338431,9.59987784 83.7976143,9.69684655 C83.4613854,9.79381525 83.1456631,9.95138704 82.8504378,10.1695666 C82.5552124,10.3877462 82.3050947,10.6624868 82.1000772,10.9937965 C81.8950596,11.3251063 81.7925523,11.7331768 81.7925523,12.2180203 L81.7925523,18.8322486 Z M96.8741052,18.8122001 C96.0540349,18.8122001 95.2995815,18.6627089 94.6107224,18.3637221 C93.9218633,18.0647352 93.323221,17.6526244 92.8147774,17.1273773 C92.3063337,16.6021301 91.9086056,15.9960848 91.621581,15.3092231 C91.3345564,14.6223614 91.1910462,13.8910667 91.1910462,13.1153171 C91.1910462,12.3395674 91.3345564,11.612313 91.621581,10.9335321 C91.9086056,10.2547511 92.3063337,9.6608267 92.8147774,9.15174099 C93.323221,8.64265527 93.9218633,8.24266536 94.6107224,7.95175924 C95.2995815,7.66085312 96.0540349,7.51540224 96.8741052,7.51540224 C97.6941756,7.51540224 98.407626,7.6366113 99.0144781,7.87903307 C99.6213301,8.12145484 100.154368,8.46892083 100.613607,8.92144146 L100.928009,8.19340595 C101.026116,7.96622853 101.305743,7.78206485 101.558262,7.78206485 L102.522783,7.78206485 C102.772756,7.78206485 102.975398,7.98566024 102.975398,8.23992069 L102.975398,10.885048 C102.975398,11.5638289 102.979498,12.4122924 102.987699,13.4304638 C102.9959,14.4486352 103,15.6849677 103,17.1394983 C103,17.6243418 102.983599,18.0970572 102.950796,18.5576585 C102.917993,19.0182599 102.848288,19.4626931 102.741679,19.8909716 C102.63507,20.31925 102.479259,20.7313609 102.274241,21.1273164 C102.069224,21.523272 101.794504,21.9071007 101.450075,22.2788141 C100.794019,22.957595 100.051866,23.4141492 99.223595,23.6484902 C98.3953239,23.8828312 97.5219621,24 96.6034834,24 C95.8162158,24 95.0740633,23.9030327 94.3770035,23.7090953 C93.6799437,23.5151579 92.9066495,23.1276645 92.9066495,23.1276645 C92.679275,23.0203473 92.4949515,22.7279083 92.4949515,22.477304 L92.4949515,21.0030935 C92.4949515,20.6231846 92.7111792,20.5208741 93.0023662,20.7758061 C93.0023662,20.7758061 93.3355159,21.163678 94.0325757,21.4545842 C94.7296355,21.7454903 95.5209915,21.8909412 96.4066675,21.8909412 C96.9971181,21.8909412 97.546557,21.8141754 98.0550006,21.6606416 C98.5634442,21.5071079 99.0062755,21.2727703 99.3835079,20.957622 C99.7607403,20.6424737 100.060061,20.2344032 100.28148,19.7333982 C100.502899,19.2323932 100.613607,18.6344285 100.613607,17.9394861 L100.613607,17.4788871 C100.41679,17.656663 100.174873,17.8263557 99.8878486,17.9879702 C99.600824,18.1495847 99.289202,18.2909953 98.9529731,18.4122062 C98.6167443,18.5334171 98.2682196,18.6303843 97.9073887,18.7031109 C97.5465577,18.7758374 97.2021334,18.8122001 96.8741052,18.8122001 Z M97.1078241,9.55139421 C96.6321833,9.55139421 96.1811514,9.64028086 95.7547148,9.81805683 C95.3282782,9.99583279 94.9551518,10.2422912 94.6353244,10.5574395 C94.315497,10.8725878 94.0653793,11.2402553 93.8849638,11.660453 C93.7045483,12.0806508 93.6143419,12.5331646 93.6143419,13.0180082 C93.6143419,13.5028517 93.7045483,13.9594058 93.8849638,14.3876843 C94.0653793,14.8159627 94.315497,15.1876706 94.6353244,15.5028188 C94.9551518,15.8179671 95.3282782,16.0684659 95.7547148,16.2543226 C96.1811514,16.4401793 96.6321833,16.5331062 97.1078241,16.5331062 C97.5834649,16.5331062 98.0344968,16.4603808 98.4609334,16.3149277 C98.88737,16.1694746 99.2563961,15.9512983 99.5680228,15.6603922 C99.8796495,15.3694861 100.125667,15.0058589 100.306082,14.5694997 C100.486498,14.1331405 100.576704,13.6159818 100.576704,13.0180082 C100.576704,12.3877116 100.486498,11.8503514 100.306082,11.4059115 C100.125667,10.9614716 99.8796495,10.6018847 99.5680228,10.32714 C99.2563961,10.0523953 98.88737,9.85442051 98.4609334,9.73320963 C98.0344968,9.61199875 97.5834649,9.55139421 97.1078241,9.55139421 Z" id="Combined-Shape"></path>
                    <path d="M14.2942779,0.447022611 C14.4155015,-0.12559844 14.6918272,-0.156364955 14.9214543,0.402611626 L24.2913386,23.2115348 L10.6377953,17.7190576 L14.2942779,0.447022611 Z" id="logomark-lower" transform="translate(17.464567, 11.605767) scale(-1, 1) rotate(180.000000) translate(-17.464567, -11.605767) "></path>
                    <path d="M11.2416411,0 L25.0944882,5.6 L1.43807803,2.96084731 C0.851482847,2.89540567 0.842838507,2.72022231 1.4079669,2.5723904 L11.2416411,0 Z" id="logomark-upper" fill-opacity="0.8" transform="translate(13.042746, 2.800000) scale(-1, 1) rotate(180.000000) translate(-13.042746, -2.800000) "></path>
                </g>
            </g>
        </g>
    </g>
</svg>